<?xml version="1.0" encoding="UTF-8" standalone="no"?>
<svg
   xmlns:dc="http://purl.org/dc/elements/1.1/"
   xmlns:cc="http://creativecommons.org/ns#"
   xmlns:rdf="http://www.w3.org/1999/02/22-rdf-syntax-ns#"
   xmlns:svg="http://www.w3.org/2000/svg"
   xmlns="http://www.w3.org/2000/svg"
   version="1.1"
   x="0px"
   y="0px"
   viewBox="0 0 90 57.084"
   enable-background="new 0 0 100 100"
   xml:space="preserve"
   id="svg12"
   width="90"
   height="57.084"><metadata
     id="metadata18"><rdf:RDF><cc:Work
         rdf:about=""><dc:format>image/svg+xml</dc:format><dc:type
           rdf:resource="http://purl.org/dc/dcmitype/StillImage" /><dc:title></dc:title></cc:Work></rdf:RDF></metadata><defs
     id="defs16"><filter
       style="color-interpolation-filters:sRGB;"
       id="filter4546"><feColorMatrix
         values="1 0 0 0 0 0 1 0 0 0 0 0 1 0 0 -0.21 -0.72 -0.07 2 0 "
         result="color2"
         id="feColorMatrix4544" /></filter></defs><path
     d="m 61.457,0 c -4.615,0 -9.031,1.078 -13.124,3.204 -0.939,0.488 -1.304,1.644 -0.817,2.582 0.488,0.938 1.644,1.303 2.582,0.817 3.542,-1.84 7.364,-2.773 11.358,-2.773 13.627,0 24.713,11.085 24.713,24.711 0,13.627 -11.086,24.713 -24.713,24.713 -3.995,0 -7.816,-0.933 -11.358,-2.773 -0.938,-0.487 -2.095,-0.122 -2.582,0.817 -0.487,0.938 -0.122,2.094 0.817,2.582 4.093,2.126 8.508,3.204 13.124,3.204 C 77.196,57.084 90,44.28 90,28.541 90,12.804 77.196,0 61.457,0 Z"
     id="path2"
     style="fill:#ff0084;fill-opacity:1" /><path
     d="m 28.542,57.084 c 4.614,0 9.029,-1.078 13.123,-3.204 0.939,-0.488 1.304,-1.644 0.817,-2.582 C 41.994,50.36 40.839,49.995 39.9,50.481 36.357,52.321 32.536,53.254 28.543,53.254 14.916,53.254 3.831,42.168 3.831,28.541 3.831,14.916 14.917,3.83 28.543,3.83 c 3.992,0 7.814,0.933 11.358,2.772 C 40.84,7.09 41.996,6.724 42.483,5.785 42.97,4.846 42.604,3.691 41.666,3.203 37.572,1.078 33.157,0 28.544,0 12.804,0 0,12.804 0,28.541 0,44.28 12.804,57.084 28.542,57.084 Z"
     id="path4"
     style="fill:#0063dc;fill-opacity:1" /><path
     d="m 43.813,6.113 c -6.927,5.456 -10.9,13.631 -10.9,22.428 0,8.799 3.973,16.974 10.9,22.428 0.348,0.273 0.766,0.41 1.185,0.41 0.418,0 0.837,-0.137 1.185,-0.41 6.927,-5.454 10.901,-13.629 10.901,-22.428 0,-8.797 -3.973,-16.972 -10.901,-22.428 -0.696,-0.547 -1.675,-0.547 -2.37,0 z m 5.1,36.412 -12.09,-12.09 c -0.047,-0.627 -0.08,-1.258 -0.08,-1.893 0,-0.403 0.013,-0.804 0.032,-1.204 L 50.088,40.65 c -0.363,0.641 -0.755,1.266 -1.175,1.875 z M 37.465,22.611 c 0.196,-0.796 0.43,-1.579 0.703,-2.347 l 14.333,14.333 c -0.199,0.792 -0.437,1.572 -0.713,2.336 z m 15.788,5.93 c 0,0.454 -0.013,0.906 -0.037,1.355 L 39.854,16.534 c 0.359,-0.645 0.748,-1.273 1.166,-1.884 l 12.167,12.168 c 0.039,0.571 0.066,1.145 0.066,1.723 z M 44.998,46.968 C 42.019,44.312 39.77,41.035 38.377,37.404 l 8.11,8.11 c -0.476,0.501 -0.968,0.99 -1.489,1.454 z M 51.705,19.92 43.433,11.648 c 0.498,-0.529 1.016,-1.044 1.564,-1.533 3.045,2.714 5.323,6.079 6.708,9.805 z"
     id="path6"
     style="fill:#f0007c;fill-opacity:1;filter:url(#filter4546)" /></svg>